<svg width="286" height="54" viewBox="0 0 286 54" fill="none" xmlns="http://www.w3.org/2000/svg">
    <g clip-path="url(#clip0_24_529)">
        <g clip-path="url(#clip1_24_529)">
            <path fill-rule="evenodd" clip-rule="evenodd"
                  d="M285.995 15.5746H279.503C276.9 18.6972 271.469 25.1037 271.469 25.1037L274.721 28.9604L284.904 16.8797L285.995 15.5746ZM282.748 38.4735L282.752 38.4789H276.269L279.521 42.3355H286L284.91 41.034L282.755 38.4789L282.748 38.4735ZM258.156 41.034L264.805 33.1079C265.011 32.8654 265.216 32.623 265.421 32.3809C266.381 31.2475 267.337 30.1192 268.279 29.0029L271.529 32.8579C270.853 33.6582 270.169 34.4657 269.483 35.2768C267.491 37.6302 265.473 40.0133 263.537 42.3355H257.074L258.156 41.034Z"
                  fill="white"/>
            <path d="M282.748 38.4735L281.657 37.1791L274.724 28.9533L271.474 25.0984L271.518 25.0452L282.83 11.7179H276.269C273.667 14.8405 270.923 18.0748 268.277 21.1956L260.283 11.7179H253.723L265.044 25.0984L253.723 38.4788H260.294C261.768 36.7057 268.273 29.0029 268.273 29.0029L271.524 32.8578L276.263 38.4788H282.746L282.748 38.4735Z"
                  fill="#48FF9E"/>
            <path d="M15.4441 42.4712C11.0371 42.4712 7.35154 40.9892 4.38752 38.0252C1.46251 35.0612 0 31.4147 0 27.0856C0 22.7176 1.46251 19.0711 4.38752 16.1461C7.35154 13.1821 11.0371 11.7001 15.4441 11.7001C18.2911 11.7001 20.8846 12.3826 23.2246 13.7476C25.5646 15.1126 27.3196 16.9456 28.4896 19.2466L23.0491 22.4056C22.3861 21.0016 21.3721 19.9096 20.0071 19.1296C18.6811 18.3106 17.1406 17.9011 15.3856 17.9011C12.8116 17.9011 10.6471 18.7786 8.89205 20.5336C7.17604 22.2886 6.31803 24.4726 6.31803 27.0856C6.31803 29.6987 7.17604 31.8827 8.89205 33.6377C10.6471 35.3927 12.8116 36.2702 15.3856 36.2702C17.1016 36.2702 18.6421 35.8607 20.0071 35.0417C21.4111 34.2227 22.4641 33.1307 23.1661 31.7657L28.6066 34.8662C27.3586 37.2062 25.5646 39.0587 23.2246 40.4237C20.8846 41.7887 18.2911 42.4712 15.4441 42.4712Z"
                  fill="white"/>
            <path d="M39.6627 17.3746C41.2618 13.7476 44.2648 11.9341 48.6718 11.9341V18.7786C46.2538 18.6226 44.1478 19.2076 42.3538 20.5336C40.5598 21.8206 39.6627 23.9656 39.6627 26.9686V41.7107H33.3447V12.4606H39.6627V17.3746Z"
                  fill="white"/>
            <path d="M73.6258 12.4606H80.3534L69.1213 42.6467C66.3133 50.2128 61.5553 53.8008 54.8472 53.4108V47.5022C56.8362 47.6192 58.4352 47.1902 59.6443 46.2152C60.8533 45.2792 61.8478 43.7972 62.6278 41.7692L62.9203 41.1842L50.5182 12.4606H57.4212L66.1378 33.6962L73.6258 12.4606Z"
                  fill="white"/>
            <path d="M100.86 11.7001C104.877 11.7001 108.309 13.2016 111.156 16.2046C114.003 19.1686 115.426 22.7956 115.426 27.0856C115.426 31.4147 114.003 35.0612 111.156 38.0252C108.309 40.9892 104.877 42.4712 100.86 42.4712C96.4135 42.4712 93.001 40.8332 90.622 37.5572V53.4108H84.304V12.4606H90.622V16.6726C93.001 13.3576 96.4135 11.7001 100.86 11.7001ZM93.2545 33.8132C95.0095 35.5682 97.213 36.4457 99.865 36.4457C102.517 36.4457 104.721 35.5682 106.476 33.8132C108.231 32.0192 109.108 29.7767 109.108 27.0856C109.108 24.3946 108.231 22.1716 106.476 20.4166C104.721 18.6226 102.517 17.7256 99.865 17.7256C97.213 17.7256 95.0095 18.6226 93.2545 20.4166C91.4995 22.1716 90.622 24.3946 90.622 27.0856C90.622 29.7767 91.4995 32.0192 93.2545 33.8132Z"
                  fill="white"/>
            <path d="M136.903 18.5446H129.649V32.5847C129.649 33.7937 129.922 34.6712 130.468 35.2172C131.014 35.7242 131.813 36.0167 132.866 36.0947C133.958 36.1337 135.304 36.1142 136.903 36.0362V41.7107C132.067 42.2957 128.596 41.8862 126.49 40.4822C124.384 39.0392 123.331 36.4067 123.331 32.5847V18.5446H117.948V12.4606H123.331V6.14253L129.649 4.27052V12.4606H136.903V18.5446Z"
                  fill="white"/>
            <path d="M155.239 42.4712C150.949 42.4712 147.303 40.9892 144.3 38.0252C141.297 35.0612 139.795 31.4147 139.795 27.0856C139.795 22.7566 141.297 19.1101 144.3 16.1461C147.303 13.1821 150.949 11.7001 155.239 11.7001C159.568 11.7001 163.215 13.1821 166.179 16.1461C169.182 19.1101 170.683 22.7566 170.683 27.0856C170.683 31.4147 169.182 35.0612 166.179 38.0252C163.215 40.9892 159.568 42.4712 155.239 42.4712ZM148.746 33.6962C150.501 35.4512 152.665 36.3287 155.239 36.3287C157.813 36.3287 159.978 35.4512 161.733 33.6962C163.488 31.9412 164.365 29.7377 164.365 27.0856C164.365 24.4336 163.488 22.2301 161.733 20.4751C159.978 18.7201 157.813 17.8426 155.239 17.8426C152.665 17.8426 150.501 18.7201 148.746 20.4751C146.991 22.2301 146.113 24.4336 146.113 27.0856C146.113 29.7377 146.991 31.9412 148.746 33.6962Z"
                  fill="white"/>
            <path d="M206.348 0C209.117 0 212.159 0.351002 215.474 1.05301V41.7107H209.156V5.61603C208.532 5.57703 207.596 5.55753 206.348 5.55753C201.746 5.55753 199.445 7.66354 199.445 11.8756V12.4606H204.886V18.5446H199.445V41.7107H193.127V18.5446H188.681V12.4606H193.127V11.8756C193.127 3.95852 197.534 0 206.348 0Z"
                  fill="white"/>
            <path d="M227.758 29.7767C228.226 31.9997 229.298 33.7157 230.975 34.9247C232.652 36.0947 234.7 36.6797 237.118 36.6797C240.472 36.6797 242.987 35.4707 244.664 33.0527L249.871 36.0947C246.985 40.3457 242.714 42.4712 237.059 42.4712C232.301 42.4712 228.46 41.0282 225.535 38.1422C222.61 35.2172 221.147 31.5317 221.147 27.0856C221.147 22.7176 222.59 19.0711 225.476 16.1461C228.362 13.1821 232.067 11.7001 236.591 11.7001C240.881 11.7001 244.391 13.2016 247.121 16.2046C249.89 19.2076 251.275 22.8541 251.275 27.1441C251.275 27.8071 251.197 28.6846 251.041 29.7767H227.758ZM227.699 24.6286H244.898C244.469 22.2496 243.475 20.4556 241.915 19.2466C240.394 18.0376 238.6 17.4331 236.533 17.4331C234.193 17.4331 232.243 18.0766 230.683 19.3636C229.123 20.6506 228.128 22.4056 227.699 24.6286Z"
                  fill="white"/>
        </g>
    </g>
    <defs>
        <clipPath id="clip0_24_529">
            <rect width="286" height="54" fill="white"/>
        </clipPath>
        <clipPath id="clip1_24_529">
            <rect width="286" height="54" fill="white"/>
        </clipPath>
    </defs>
</svg>
